<svg width="20" height="20" viewBox="0 0 20 20" fill="none" xmlns="http://www.w3.org/2000/svg">
<path d="M13.125 7.5V6.25H10.625V4.375H9.375V6.25H8.125C7.79348 6.25 7.47554 6.3817 7.24112 6.61612C7.0067 6.85054 6.875 7.16848 6.875 7.5V9.375C6.875 9.70652 7.0067 10.0245 7.24112 10.2589C7.47554 10.4933 7.79348 10.625 8.125 10.625H11.875V12.5H6.875V13.75H9.375V15.625H10.625V13.75H11.875C12.2065 13.75 12.5245 13.6183 12.7589 13.3839C12.9933 13.1495 13.125 12.8315 13.125 12.5V10.625C13.125 10.2935 12.9933 9.97554 12.7589 9.74112C12.5245 9.5067 12.2065 9.375 11.875 9.375H8.125V7.5H13.125Z" fill="#A0ADAD"/>
<path d="M10 2.5C11.4834 2.5 12.9334 2.93987 14.1668 3.76398C15.4001 4.58809 16.3614 5.75943 16.9291 7.12987C17.4968 8.50032 17.6453 10.0083 17.3559 11.4632C17.0665 12.918 16.3522 14.2544 15.3033 15.3033C14.2544 16.3522 12.918 17.0665 11.4632 17.3559C10.0083 17.6453 8.50032 17.4968 7.12988 16.9291C5.75943 16.3614 4.58809 15.4001 3.76398 14.1668C2.93987 12.9334 2.5 11.4834 2.5 10C2.50578 8.01265 3.2978 6.10835 4.70308 4.70307C6.10835 3.2978 8.01266 2.50577 10 2.5ZM10 1.25C8.26942 1.25 6.57769 1.76318 5.13876 2.72464C3.69983 3.6861 2.57832 5.05267 1.91606 6.65152C1.25379 8.25037 1.08051 10.0097 1.41813 11.707C1.75575 13.4044 2.58911 14.9635 3.81282 16.1872C5.03653 17.4109 6.59563 18.2442 8.29296 18.5819C9.9903 18.9195 11.7496 18.7462 13.3485 18.0839C14.9473 17.4217 16.3139 16.3002 17.2754 14.8612C18.2368 13.4223 18.75 11.7306 18.75 10C18.7434 7.68138 17.8194 5.45962 16.1799 3.8201C14.5404 2.18059 12.3186 1.2566 10 1.25Z" fill="#A0ADAD"/>
</svg>
