<svg width="20" height="20" viewBox="0 0 20 20" fill="none" xmlns="http://www.w3.org/2000/svg">
<path d="M14.1654 11.6673V16.6673M11.6654 14.1673H16.6654M4.9987 8.33398H6.66536C7.58584 8.33398 8.33203 7.58779 8.33203 6.66732V5.00065C8.33203 4.08018 7.58584 3.33398 6.66536 3.33398H4.9987C4.07822 3.33398 3.33203 4.08018 3.33203 5.00065V6.66732C3.33203 7.58779 4.07822 8.33398 4.9987 8.33398ZM13.332 8.33398H14.9987C15.9192 8.33398 16.6654 7.58779 16.6654 6.66732V5.00065C16.6654 4.08018 15.9192 3.33398 14.9987 3.33398H13.332C12.4116 3.33398 11.6654 4.08018 11.6654 5.00065V6.66732C11.6654 7.58779 12.4116 8.33398 13.332 8.33398ZM4.9987 16.6673H6.66536C7.58584 16.6673 8.33203 15.9211 8.33203 15.0007V13.334C8.33203 12.4135 7.58584 11.6673 6.66536 11.6673H4.9987C4.07822 11.6673 3.33203 12.4135 3.33203 13.334V15.0007C3.33203 15.9211 4.07822 16.6673 4.9987 16.6673Z" stroke="#A0ADAD" stroke-width="1.5" stroke-linecap="round" stroke-linejoin="round"/>
</svg>
