<svg width="20" height="20" viewBox="0 0 20 20" fill="none" xmlns="http://www.w3.org/2000/svg">
<path d="M15.1611 16.1548V13.6548H12.6611V12.8215H15.1611V10.3215H15.9945V12.8215H18.4945V13.6548H15.9945V16.1548H15.1611ZM2.85365 16.6673C2.47031 16.6673 2.15004 16.539 1.89281 16.2823C1.63559 16.0257 1.50726 15.7054 1.50781 15.3215V4.67982C1.50781 4.29648 1.63615 3.97648 1.89281 3.71982C2.14948 3.46315 2.46976 3.33454 2.85365 3.33398H13.4953C13.8786 3.33398 14.1986 3.4626 14.4553 3.71982C14.712 3.97704 14.8406 4.29732 14.8411 4.68065V8.33398H14.0078V6.15482H2.34115V15.3215C2.34115 15.4709 2.3892 15.5937 2.48531 15.6898C2.58143 15.7859 2.7042 15.834 2.85365 15.834H13.1745V16.6673H2.85365ZM2.34115 5.32148H14.0078V4.67982C14.0078 4.53037 13.9595 4.4076 13.8628 4.31148C13.7673 4.21537 13.6445 4.16732 13.4945 4.16732H2.85365C2.70365 4.16732 2.58087 4.21537 2.48531 4.31148C2.3892 4.4076 2.34115 4.53065 2.34115 4.68065V5.32148Z" fill="#A0ADAD"/>
</svg>
